HIERARCHY
ROOT Hips
{
	OFFSET 0.00000 0.00000 0.00000
	CHANNELS 6 Xposition Yposition Zposition Zrotation Yrotation Xrotation 
	JOINT LHipJoint
	{
		OFFSET 0 0 0
		CHANNELS 3 Zrotation Yrotation Xrotation
		JOINT LeftUpLeg
		{
			OFFSET 1.36337 -1.57426 1.11036
			CHANNELS 3 Zrotation Yrotation Xrotation
			JOINT LeftLeg
			{
				OFFSET 2.38468 -6.55187 0.00000
				CHANNELS 3 Zrotation Yrotation Xrotation
				JOINT LeftFoot
				{
					OFFSET 2.37166 -6.51609 0.00000
					CHANNELS 3 Zrotation Yrotation Xrotation
					JOINT LeftToeBase
					{
						OFFSET 0.29078 -0.79891 2.01393
						CHANNELS 3 Zrotation Yrotation Xrotation
						End Site
						{
							OFFSET 0.00000 -0.00000 1.07924
						}
					}
				}
			}
		}
	}
	JOINT RHipJoint
	{
		OFFSET 0 0 0
		CHANNELS 3 Zrotation Yrotation Xrotation
		JOINT RightUpLeg
		{
			OFFSET -1.36349 -1.57426 1.11036
			CHANNELS 3 Zrotation Yrotation Xrotation
			JOINT RightLeg
			{
				OFFSET -2.29562 -6.30717 0.00000
				CHANNELS 3 Zrotation Yrotation Xrotation
				JOINT RightFoot
				{
					OFFSET -2.40985 -6.62100 0.00000
					CHANNELS 3 Zrotation Yrotation Xrotation
					JOINT RightToeBase
					{
						OFFSET -0.23197 -0.63733 1.92232
						CHANNELS 3 Zrotation Yrotation Xrotation
						End Site
						{
							OFFSET -0.00000 -0.00000 1.01562
						}
					}
				}
			}
		}
	}
	JOINT LowerBack
	{
		OFFSET 0 0 0
		CHANNELS 3 Zrotation Yrotation Xrotation
		JOINT Spine
		{
			OFFSET -0.08565 2.03602 -0.24562
			CHANNELS 3 Zrotation Yrotation Xrotation
			JOINT Spine1
			{
				OFFSET -0.00036 2.05693 0.00216
				CHANNELS 3 Zrotation Yrotation Xrotation
				JOINT Neck
				{
					OFFSET 0 0 0
					CHANNELS 3 Zrotation Yrotation Xrotation
					JOINT Neck1
					{
						OFFSET -0.03664 1.69515 0.31789
						CHANNELS 3 Zrotation Yrotation Xrotation
						JOINT Head
						{
							OFFSET 0.00932 1.70181 -0.46013
							CHANNELS 3 Zrotation Yrotation Xrotation
							End Site
							{
								OFFSET 0.01243 1.77620 -0.19377
							}
						}
					}
				}
				JOINT LeftShoulder
				{
					OFFSET 0 0 0
					CHANNELS 3 Zrotation Yrotation Xrotation
					JOINT LeftArm
					{
						OFFSET 3.74344 0.81315 -0.36647
						CHANNELS 3 Zrotation Yrotation Xrotation
						JOINT LeftForeArm
						{
							OFFSET 4.97185 -0.00000 -0.00000
							CHANNELS 3 Zrotation Yrotation Xrotation
							JOINT LeftHand
							{
								OFFSET 3.35811 -0.00000 0.00000
								CHANNELS 3 Zrotation Yrotation Xrotation
								JOINT LeftFingerBase
								{
									OFFSET 0 0 0
									CHANNELS 3 Zrotation Yrotation Xrotation
									JOINT LeftHandIndex1
									{
										OFFSET 0.62278 -0.00000 0.00000
										CHANNELS 3 Zrotation Yrotation Xrotation
										End Site
										{
											OFFSET 0.50210 -0.00000 0.00000
										}
									}
								}
								JOINT LThumb
								{
									OFFSET 0 0 0
									CHANNELS 3 Zrotation Yrotation Xrotation
									End Site
									{
										OFFSET 0.50976 -0.00000 0.50976
									}
								}
							}
						}
					}
				}
				JOINT RightShoulder
				{
					OFFSET 0 0 0
					CHANNELS 3 Zrotation Yrotation Xrotation
					JOINT RightArm
					{
						OFFSET -3.75385 0.50666 -0.06525
						CHANNELS 3 Zrotation Yrotation Xrotation
						JOINT RightForeArm
						{
							OFFSET -4.96493 -0.00000 -0.00000
							CHANNELS 3 Zrotation Yrotation Xrotation
							JOINT RightHand
							{
								OFFSET -3.34929 -0.00000 0.00000
								CHANNELS 3 Zrotation Yrotation Xrotation
								JOINT RightFingerBase
								{
									OFFSET 0 0 0
									CHANNELS 3 Zrotation Yrotation Xrotation
									JOINT RightHandIndex1
									{
										OFFSET -0.63804 -0.00000 0.00000
										CHANNELS 3 Zrotation Yrotation Xrotation
										End Site
										{
											OFFSET -0.51441 -0.00000 0.00000
										}
									}
								}
								JOINT RThumb
								{
									OFFSET 0 0 0
									CHANNELS 3 Zrotation Yrotation Xrotation
									End Site
									{
										OFFSET -0.52226 -0.00000 0.52226
									}
								}
							}
						}
					}
				}
			}
		}
	}
}
MOTION
Frames: 16
Frame Time: .0083333
5.8937 16.9669 -1.8021 64.9085 -85.9153 -63.2002 0.0000 0.0000 0.0000 -14.8155 -4.1778 -4.2429 0.9647 6.2535 17.5217 0.2237 10.3457 -17.8141 0.0063 -0.5119 -1.4067 0.0000 0.0000 0.0000 13.6975 -5.2814 -5.0679 -0.7166 -5.4098 15.0811 -0.1055 -13.5327 -20.4275 -0.0604 -1.5852 4.3605 -3.0119 0.2037 -0.2107 1.2814 0.2591 3.3836 3.0187 -0.0002 3.5839 0.5316 5.3279 -17.4741 1.1955 5.3299 46.1497 1.4618 1.5364 21.7869 0.0000 -0.0000 0.0000 -91.4575 -4.7898 31.3819 13.0510 -21.3619 -2.4718 -0.0000 0.0000 -7.8184 20.3892 -12.0756 -4.4462 -7.1250 0.0000 -0.0000 -4.7451 17.1506 3.1457 0.0000 -0.0000 0.0000 85.3777 3.8154 19.1387 -14.1636 22.9680 -2.8916 0.0000 -0.0000 -5.8801 -10.1301 -30.2832 5.1483 7.1250 -0.0000 -0.0000 23.9653 -59.0159 -8.5138
5.8927 16.9660 -1.8020 64.1940 -85.7514 -62.5412 0.0000 0.0000 0.0000 -14.9688 -4.2510 -4.1982 0.9714 6.2746 17.5834 0.2288 10.2924 -17.8144 0.0066 -0.5261 -1.4458 0.0000 0.0000 0.0000 13.5246 -5.6612 -5.0309 -0.7060 -5.3703 14.9679 -0.1181 -13.3430 -20.3158 -0.0589 -1.5662 4.3081 -3.0713 0.1445 -0.3229 1.2722 0.1845 3.4295 3.0410 -0.0420 3.7009 0.5601 5.3040 -17.5433 1.1376 5.3131 46.1235 1.4245 1.5289 21.7951 0.0000 0.0000 0.0000 -91.4775 -4.6679 31.3469 13.1499 -21.5065 -2.5080 -0.0000 0.0000 -8.0207 20.3105 -11.8795 -4.3570 -7.1250 0.0000 -0.0000 -4.7946 17.3646 3.1563 0.0000 0.0000 0.0000 85.3678 3.8002 19.1284 -14.1483 22.9463 -2.8857 0.0000 -0.0000 -5.7779 -10.2088 -30.0240 5.1489 7.1250 -0.0000 -0.0000 23.6809 -58.7987 -8.2806
5.8986 16.9661 -1.8056 63.4260 -85.7491 -61.7982 0.0000 0.0000 0.0000 -14.9234 -4.2425 -4.2288 0.9749 6.2855 17.6151 0.2307 10.2528 -17.7916 0.0061 -0.5029 -1.3819 0.0000 0.0000 0.0000 13.5633 -5.7415 -4.9680 -0.6938 -5.3248 14.8373 -0.1094 -13.3530 -20.2335 -0.0550 -1.5138 4.1637 -3.0253 0.1200 -0.3570 1.3246 0.1489 3.4863 3.0685 -0.0622 3.7819 0.5001 5.3240 -17.7086 1.1336 5.3922 46.0968 1.4573 1.5500 21.8235 -0.0000 -0.0000 0.0000 -91.4715 -4.7841 31.3863 13.1466 -21.5016 -2.5067 -0.0000 0.0000 -8.2657 20.2315 -12.0647 -4.4050 -7.1250 0.0000 -0.0000 -4.8547 17.1760 3.2162 -0.0000 -0.0000 0.0000 85.2838 3.8973 19.2337 -14.1614 22.9650 -2.8908 0.0000 -0.0000 -5.8317 -10.0908 -30.2117 5.1172 7.1250 -0.0000 -0.0000 23.9489 -58.9425 -8.4649
5.9094 16.9660 -1.8121 61.8658 -85.9150 -60.2906 0.0000 0.0000 0.0000 -14.6652 -4.1530 -4.2482 0.9720 6.2766 17.5892 0.2291 10.2055 -17.7176 0.0078 -0.5706 -1.5680 0.0000 0.0000 0.0000 13.8365 -5.5288 -4.8066 -0.6835 -5.2858 14.7256 -0.0847 -13.6035 -20.2945 -0.0578 -1.5512 4.2668 -2.7973 0.1393 -0.3029 1.4222 0.1630 3.5246 3.0416 -0.0511 3.7895 0.4179 5.2895 -17.7547 1.0865 5.4150 45.9892 1.4524 1.5461 21.7523 0.0000 -0.0000 0.0000 -91.5352 -4.9212 31.3429 13.0800 -21.4043 -2.4824 -0.0000 0.0000 -8.1671 20.3805 -12.1708 -4.4785 -7.1250 0.0000 -0.0000 -4.7539 17.0509 3.1620 0.0000 -0.0000 0.0000 85.1855 3.9672 19.3406 -14.1561 22.9575 -2.8887 0.0000 -0.0000 -5.9072 -9.9360 -30.3310 5.0554 7.1250 -0.0000 -0.0000 24.2017 -59.0157 -8.6040
5.9132 16.9660 -1.8153 60.6407 -85.9977 -59.1315 0.0000 0.0000 0.0000 -14.5347 -4.0828 -4.1918 0.9651 6.2550 17.5262 0.2197 10.2010 -17.5964 0.0129 -0.7347 -2.0190 0.0000 0.0000 0.0000 13.9866 -5.4155 -4.6297 -0.6734 -5.2473 14.6154 -0.0716 -13.7736 -20.3786 -0.0593 -1.5715 4.3228 -2.6007 0.1488 -0.3327 1.4607 0.1695 3.5481 2.9711 -0.0437 3.8300 0.5181 5.2400 -17.7222 0.8594 5.4166 45.8643 1.3118 1.5422 21.6670 0.0000 0.0000 0.0000 -91.5670 -5.0308 31.2668 12.9297 -21.1842 -2.4278 -0.0000 0.0000 -7.9916 20.4130 -12.2352 -4.5095 -7.1250 0.0000 -0.0000 -4.7332 16.9800 3.1555 0.0000 0.0000 0.0000 85.2116 4.0025 19.1117 -14.1192 22.9049 -2.8743 0.0000 -0.0000 -5.6289 -9.7480 -30.1749 4.9353 7.1250 -0.0000 -0.0000 24.2694 -58.8327 -8.5221
5.9076 16.9679 -1.8164 61.3766 -85.8121 -59.9352 0.0000 0.0000 0.0000 -14.7604 -4.0970 -4.0502 0.9577 6.2316 17.4578 0.2159 10.2373 -17.5918 0.0113 -0.6866 -1.8869 0.0000 0.0000 0.0000 13.7659 -5.5384 -4.4727 -0.6617 -5.2027 14.4876 -0.0777 -13.7330 -20.3911 -0.0552 -1.5159 4.1695 -2.7251 0.1506 -0.4200 1.4212 0.1784 3.5912 3.0014 -0.0448 3.9240 0.5883 5.1924 -17.8215 0.7074 5.4000 45.7924 1.2184 1.5328 21.6587 0.0000 -0.0000 0.0000 -91.6002 -5.1260 31.1198 12.7706 -20.9501 -2.3706 -0.0000 0.0000 -7.7361 20.1809 -12.4002 -4.5129 -7.1250 0.0000 -0.0000 -4.8993 16.8266 3.2834 0.0000 -0.0000 0.0000 85.2735 4.0962 18.6375 -14.0467 22.8014 -2.8462 0.0000 -0.0000 -5.2031 -9.5673 -29.9459 4.8094 7.1250 -0.0000 -0.0000 24.2732 -58.5859 -8.3779
5.9018 16.9697 -1.8182 62.3865 -85.5913 -60.9982 0.0000 0.0000 0.0000 -15.0215 -4.1448 -3.8776 0.9479 6.2005 17.3673 0.2277 10.2281 -17.7259 0.0045 -0.4317 -1.1861 0.0000 0.0000 0.0000 13.4950 -5.7165 -4.3617 -0.6512 -5.1619 14.3710 -0.0883 -13.6346 -20.3755 -0.0532 -1.4884 4.0938 -2.9652 0.1444 -0.4958 1.3971 0.1798 3.5930 3.1122 -0.0521 3.9692 0.4279 5.0984 -17.8899 0.8177 5.2722 45.7416 1.2780 1.4750 21.6257 -0.0000 0.0000 0.0000 -91.6558 -4.8652 30.9435 12.8921 -21.1290 -2.4143 -0.0000 0.0000 -7.4585 19.8692 -12.2952 -4.4006 -7.1250 0.0000 -0.0000 -5.1130 16.9650 3.4123 -0.0000 0.0000 0.0000 85.2317 4.1318 18.4347 -13.9318 22.6371 -2.8018 0.0000 -0.0000 -5.0283 -9.4662 -29.7364 4.7278 7.1250 -0.0000 -0.0000 24.2131 -58.3744 -8.2308
5.9038 16.9719 -1.8190 62.3094 -85.6649 -60.8929 0.0000 0.0000 0.0000 -14.9447 -4.1244 -3.8446 0.9371 6.1662 17.2673 0.2297 10.2394 -17.7632 0.0031 -0.3576 -0.9825 0.0000 0.0000 0.0000 13.5790 -5.6459 -4.3164 -0.6404 -5.1198 14.2505 -0.0795 -13.6981 -20.3642 -0.0493 -1.4325 3.9397 -2.9044 0.1433 -0.5608 1.4480 0.1787 3.4910 3.1306 -0.0478 3.8998 0.2133 4.9846 -17.7633 1.0030 5.0846 45.6676 1.3653 1.3960 21.5058 -0.0000 -0.0000 0.0000 -91.6703 -4.4012 30.9216 13.1516 -21.5089 -2.5086 -0.0000 0.0000 -7.4865 19.5101 -11.8746 -4.1699 -7.1250 0.0000 -0.0000 -5.3534 17.4379 3.5186 -0.0000 -0.0000 0.0000 85.1316 4.0073 18.6139 -13.8292 22.4901 -2.7625 0.0000 -0.0000 -5.2489 -9.5823 -29.5339 4.7570 7.1250 -0.0000 -0.0000 23.9403 -58.2165 -8.0389
5.9117 16.9756 -1.8177 61.9920 -85.7241 -60.5255 0.0000 0.0000 0.0000 -14.8830 -4.1333 -3.9078 0.9329 6.1525 17.2276 0.2162 10.3051 -17.6740 0.0056 -0.4846 -1.3316 0.0000 0.0000 0.0000 13.6645 -5.4951 -4.2358 -0.6224 -5.0488 14.0477 -0.0468 -13.9057 -20.2849 -0.0457 -1.3804 3.7962 -2.8008 0.1337 -0.5621 1.4787 0.1634 3.4045 3.1029 -0.0492 3.8116 0.0975 4.8842 -17.6521 1.0659 4.9393 45.5727 1.3804 1.3346 21.3897 0.0000 0.0000 0.0000 -91.6608 -4.2156 31.0156 13.2098 -21.5939 -2.5300 -0.0000 0.0000 -7.7297 19.3655 -11.7089 -4.0799 -7.1250 0.0000 -0.0000 -5.4511 17.6238 3.5611 0.0000 0.0000 0.0000 85.0945 3.9142 18.7140 -13.7813 22.4212 -2.7441 0.0000 -0.0000 -5.4458 -9.8329 -29.4222 4.8666 7.1250 -0.0000 -0.0000 23.6019 -58.1696 -7.8897
5.9187 16.9786 -1.8158 61.0583 -85.7394 -59.5681 0.0000 0.0000 0.0000 -14.8385 -4.1973 -3.9313 0.9302 6.1438 17.2023 0.2111 10.3295 -17.6397 0.0060 -0.5015 -1.3780 0.0000 0.0000 0.0000 13.7296 -5.3712 -4.0973 -0.6038 -4.9739 13.8342 -0.0109 -14.1506 -20.2256 -0.0441 -1.3548 3.7256 -2.7551 0.0943 -0.6937 1.5202 0.1099 3.4852 3.1191 -0.0798 3.9741 0.0438 4.7905 -17.7296 0.9783 4.8760 45.3909 1.3302 1.3010 21.2810 0.0000 0.0000 0.0000 -91.7132 -4.3674 30.9833 13.1272 -21.4732 -2.4996 -0.0000 0.0000 -7.7759 19.5406 -11.9605 -4.2066 -7.1250 0.0000 -0.0000 -5.3339 17.3453 3.5165 0.0000 0.0000 0.0000 85.0915 4.0769 18.6525 -13.7890 22.4323 -2.7471 0.0000 -0.0000 -5.4030 -9.9363 -29.6300 4.9500 7.1250 -0.0000 -0.0000 23.6545 -58.3810 -8.0305
5.9246 16.9806 -1.8132 59.9078 -85.9040 -58.3907 0.0000 0.0000 0.0000 -14.6351 -4.2103 -3.9176 0.9192 6.1086 17.0998 0.2116 10.3534 -17.6740 0.0030 -0.3515 -0.9657 0.0000 0.0000 0.0000 13.9430 -5.2028 -4.0091 -0.5940 -4.9341 13.7208 -0.0012 -14.2655 -20.2788 -0.0437 -1.3485 3.7081 -2.6035 0.0735 -0.9672 1.6020 0.0780 3.6343 3.1193 -0.1009 4.2868 0.0644 4.6964 -17.7924 0.7498 4.8645 45.0735 1.2036 1.2895 21.0800 0.0000 0.0000 0.0000 -91.8165 -4.5799 30.7465 13.0901 -21.4191 -2.4861 -0.0000 0.0000 -7.4849 19.6151 -11.9881 -4.2335 -7.1250 0.0000 -0.0000 -5.2826 17.3099 3.4865 0.0000 0.0000 0.0000 85.0450 4.3232 18.6929 -13.8064 22.4572 -2.7537 0.0000 -0.0000 -5.4268 -9.9188 -29.8977 4.9814 7.1250 -0.0000 -0.0000 23.8783 -58.6199 -8.2510
5.9304 16.9816 -1.8068 61.2780 -85.8066 -59.7426 0.0000 0.0000 0.0000 -14.8108 -4.2176 -3.8694 0.9057 6.0646 16.9721 0.2109 10.3980 -17.7188 0.0021 -0.2951 -0.8108 0.0000 0.0000 0.0000 13.7630 -5.2460 -4.0129 -0.5868 -4.9047 13.6369 -0.0091 -14.1598 -20.2188 -0.0483 -1.4187 3.9015 -2.6650 0.0795 -1.0901 1.5506 0.0924 3.6940 3.1022 -0.0981 4.4180 0.0888 4.5653 -17.8636 0.5102 4.7875 44.8273 1.0583 1.2462 20.9382 0.0000 -0.0000 0.0000 -91.8532 -4.6761 30.5506 13.0473 -21.3564 -2.4705 -0.0000 0.0000 -7.1863 19.4499 -11.8138 -4.1352 -7.1250 0.0000 -0.0000 -5.3942 17.5067 3.5375 0.0000 -0.0000 0.0000 85.0338 4.4157 18.6048 -13.8168 22.4723 -2.7577 0.0000 -0.0000 -5.4057 -9.7871 -30.0140 4.9316 7.1250 -0.0000 -0.0000 24.1031 -58.6960 -8.3792
5.9385 16.9825 -1.7984 64.5896 -85.4511 -63.1151 0.0000 0.0000 0.0000 -15.3389 -4.2214 -3.7478 0.8948 6.0291 16.8689 0.2022 10.5017 -17.7340 0.0054 -0.4752 -1.3058 0.0000 0.0000 0.0000 13.2407 -5.2599 -3.9286 -0.5800 -4.8768 13.5576 -0.0118 -14.0982 -20.1620 -0.0541 -1.5003 4.1266 -2.9901 0.0819 -0.9875 1.3877 0.1108 3.7065 3.1167 -0.0963 4.3722 0.0307 4.4291 -18.0469 0.4549 4.6408 44.7065 1.0122 1.1792 20.9091 0.0000 -0.0000 0.0000 -91.7902 -4.6545 30.4827 12.9945 -21.2792 -2.4513 -0.0000 0.0000 -7.1626 19.2290 -11.7270 -4.0552 -7.1250 0.0000 -0.0000 -5.5469 17.6159 3.6252 0.0000 -0.0000 0.0000 85.1384 4.3838 18.3692 -13.8760 22.5572 -2.7804 0.0000 -0.0000 -5.2093 -9.4422 -30.4709 4.8206 7.1250 -0.0000 -0.0000 24.8177 -59.0309 -8.8493
5.9477 16.9851 -1.7908 66.3215 -85.2658 -64.8738 0.0000 0.0000 0.0000 -15.6176 -4.1585 -3.7254 0.8869 6.0029 16.7930 0.1863 10.5959 -17.6493 0.0089 -0.6084 -1.6718 0.0000 0.0000 0.0000 12.9718 -5.0668 -3.8260 -0.5765 -4.8620 13.5153 -0.0112 -14.1852 -20.2768 -0.0521 -1.4728 4.0506 -3.1754 0.0620 -0.8952 1.3026 0.0913 3.6841 3.1312 -0.1089 4.2985 -0.0410 4.3474 -18.1141 0.4748 4.5514 44.5346 1.0160 1.1453 20.8017 -0.0000 -0.0000 0.0000 -91.7144 -4.5448 30.5600 13.0008 -21.2883 -2.4536 -0.0000 0.0000 -7.4199 19.1259 -11.6785 -4.0154 -7.1250 0.0000 -0.0000 -5.6181 17.6752 3.6649 -0.0000 -0.0000 0.0000 85.2050 4.2857 18.3315 -13.9603 22.6780 -2.8128 0.0000 -0.0000 -5.1887 -9.2332 -31.0515 4.7930 7.1250 -0.0000 -0.0000 25.5097 -59.5033 -9.4085
5.9501 16.9878 -1.7800 65.1782 -85.2386 -63.6190 0.0000 0.0000 0.0000 -15.6158 -4.0690 -3.8909 0.8838 5.9930 16.7640 0.1866 10.4815 -17.5162 0.0066 -0.5261 -1.4456 0.0000 0.0000 0.0000 12.9505 -5.1224 -3.8915 -0.5693 -4.8324 13.4311 -0.0135 -14.1948 -20.3158 -0.0478 -1.4116 3.8822 -3.1057 0.0071 -0.9998 1.2985 0.0204 3.6169 3.0846 -0.1397 4.2930 -0.0961 4.2851 -18.0033 0.4121 4.5191 44.3257 0.9820 1.1265 20.6193 0.0000 0.0000 0.0000 -91.6704 -4.4061 30.8542 13.0451 -21.3532 -2.4697 -0.0000 0.0000 -7.7486 19.2108 -11.5662 -3.9964 -7.1250 0.0000 -0.0000 -5.5568 17.7860 3.6109 0.0000 0.0000 0.0000 85.1473 4.1781 18.3929 -13.9824 22.7096 -2.8213 0.0000 -0.0000 -5.3181 -9.2822 -31.1950 4.8387 7.1250 -0.0000 -0.0000 25.5807 -59.6424 -9.5229
5.9457 16.9880 -1.7648 63.4764 -85.3540 -61.8683 0.0000 0.0000 0.0000 -15.4739 -3.9631 -3.9945 0.8889 6.0098 16.8127 0.2048 10.2822 -17.5064 0.0045 -0.4322 -1.1875 0.0000 0.0000 0.0000 13.0557 -5.4010 -3.8906 -0.5523 -4.7607 13.2273 -0.0146 -14.0881 -20.1797 -0.0462 -1.3869 3.8141 -2.8613 -0.0247 -1.1626 1.3283 -0.0267 3.6272 2.9762 -0.1572 4.3986 -0.2015 4.1594 -17.9655 0.3486 4.4157 44.0658 0.9434 1.0750 20.4241 -0.0000 0.0000 0.0000 -91.6773 -4.3658 31.1168 13.0613 -21.3770 -2.4756 -0.0000 0.0000 -7.8784 19.4420 -11.5554 -4.0445 -7.1250 0.0000 -0.0000 -5.3947 17.7787 3.5055 -0.0000 0.0000 0.0000 85.0911 4.2533 18.2791 -13.8723 22.5518 -2.7789 0.0000 -0.0000 -5.2260 -9.4299 -30.8781 4.8720 7.1250 -0.0000 -0.0000 25.1640 -59.3932 -9.2038
